# xmcd
#
# Track frame offsets:
# 150
# 13067
# 22822
# 34114
# 44167
# 57316
# 67540
# 78805
# 89625
# 100302
# 110273
# 120618
# 132554
# 143575
# 156809
# 169273
# 179289
# 190730
# 201516
# 214293
# 224956
# 234246
# 244996
# 256729
# 271004
# 281878
# 293658
# 307151
# 320374
# 330362
# 344792
#
# Disc length: 4706 seconds
#
# Revision: 0
# Processed by: cddbd v1.5.2PL0 Copyright (c) Steve Scherf et al.
# Submitted via: Axialis_AX_CDPlayer 2.6
#
DISCID=d512601f
DTITLE=H-Bomb Ferguson - Big City Blues 1951 - 54
DYEAR=1900
DGENRE=
TTITLE0=Wine Head
TTITLE1=Hard Lovin' Woman
TTITLE2=I Love My Baby
TTITLE3=Rock H-Bomb Rock
TTITLE4=On My Way
TTITLE5=Good Time Gal
TTITLE6=Feel Like I Do
TTITLE7=My Love
TTITLE8=Slowly Goin' Crazy
TTITLE9=Preachin' The Blues
TTITLE10=Sundown Blues
TTITLE11=Good Lovin'
TTITLE12=Give It Up
TTITLE13=Big City Blues
TTITLE14=My Brown Frame Baby
TTITLE15=New Way Blues
TTITLE16=Bookie's Blues
TTITLE17=Life Is Hard
TTITLE18=Hot Kisses
TTITLE19=Tortured Love
TTITLE20=Work For My Baby
TTITLE21=My Baby's Blues
TTITLE22=I Need You Baby
TTITLE23=You Made Me Baby
TTITLE24=She's Been Gone
TTITLE25=Nobody Knows
TTITLE26=Baby Don't Go
TTITLE27=Josephine
TTITLE28=Baby Please
TTITLE29=Hole In The Wall
TTITLE30=Double Crossin' Daddy - Varetta Dillard and ?
EXTD=
EXTT0=
EXTT1=
EXTT2=
EXTT3=
EXTT4=
EXTT5=
EXTT6=
EXTT7=
EXTT8=
EXTT9=
EXTT10=
EXTT11=
EXTT12=
EXTT13=
EXTT14=
EXTT15=
EXTT16=
EXTT17=
EXTT18=
EXTT19=
EXTT20=
EXTT21=
EXTT22=
EXTT23=
EXTT24=
EXTT25=
EXTT26=
EXTT27=
EXTT28=
EXTT29=
EXTT30=
PLAYORDER=
